# xmcd
#
# Track frame offsets:
# 150
# 13285
# 43556
# 58167
# 75510
# 93644
# 120899
# 135757
# 150522
# 171591
# 194374
# 206698
#
# Disc length: 2926 seconds
#
#
# Revision: 0
# Processed by: cddbd v1.5.2PL0 Copyright (c) Steve Scherf et al.
# Submitted via: FreeRIP 2.70 
#
DISCID=990b6c0c
DTITLE=Sonny Terry and Brownie McGhee - Cool Blues
DYEAR=1999
DGENRE=Blues
TTITLE0=Walk On
TTITLE1=Everybody's Blue (Featuring Lightnin' Hopkins)
TTITLE2=Trouble In Mind
TTITLE3=Just Rode In Your Town
TTITLE4=I'm A Stranger Here
TTITLE5=Blowin' The Fuses
TTITLE6=Down By The Riverside
TTITLE7=Sun's Gonna Shine
TTITLE8=Blues For The Lowlands
TTITLE9=Drinking In The Blues
TTITLE10=Po' Boy
TTITLE11=Right On That Shore (Featuring Lightnin' Hopkins)
EXTD=
EXTT0=Sonny Terry and Brownie McGhee
EXTT1=Sonny Terry and Brownie McGhee
EXTT2=Sonny Terry and Brownie McGhee
EXTT3=Sonny Terry and Brownie McGhee
EXTT4=Sonny Terry and Brownie McGhee
EXTT5=Sonny Terry and Brownie McGhee
EXTT6=Sonny Terry and Brownie McGhee
EXTT7=Sonny Terry and Brownie McGhee
EXTT8=Sonny Terry and Brownie McGhee
EXTT9=Sonny Terry and Brownie McGhee
EXTT10=Sonny Terry and Brownie McGhee
EXTT11=Sonny Terry and Brownie McGhee
PLAYORDER=
